<?xml version="1.0" standalone="no"?>
<!DOCTYPE svg PUBLIC "-//W3C//DTD SVG 20010904//EN"
 "http://www.w3.org/TR/2001/REC-SVG-20010904/DTD/svg10.dtd">
<svg version="1.0" xmlns="http://www.w3.org/2000/svg"
 width="892.000000pt" height="892.000000pt" viewBox="0 0 892.000000 892.000000"
 preserveAspectRatio="xMidYMid meet">
<metadata>
Created by potrace 1.14, written by Peter Selinger 2001-2017
</metadata>
<g transform="translate(0.000000,892.000000) scale(0.100000,-0.100000)"
fill="#000000" stroke="none">
<path d="M0 8180 l0 -480 448 0 449 0 12 -67 c6 -38 34 -187 62 -333 27 -146
61 -323 74 -395 102 -546 137 -728 221 -1160 132 -676 239 -1208 500 -2470 58
-280 143 -699 189 -930 112 -560 193 -953 206 -992 l11 -33 2854 0 2854 0 0
130 0 130 -2752 2 -2752 3 -18 90 c-9 50 -45 231 -78 403 -34 173 -59 317 -55
320 4 4 1198 8 2655 10 l2648 2 32 83 c18 45 70 186 117 312 46 127 148 399
225 605 77 206 272 737 433 1180 162 443 335 913 385 1045 114 299 180 475
180 481 0 2 -236 4 -524 4 -407 0 -526 3 -534 13 -5 6 -13 28 -17 47 -21 101
-122 275 -213 366 l-51 52 10 133 c23 294 -34 537 -170 738 -48 71 -128 153
-188 194 -45 31 -214 107 -238 107 -19 0 -19 12 5 112 24 99 25 163 6 255 -41
191 -175 358 -361 448 -183 89 -367 98 -566 28 l-76 -27 -51 22 c-71 31 -180
52 -265 52 -160 -1 -308 -57 -454 -174 -45 -36 -84 -66 -88 -66 -4 0 -37 27
-73 61 -79 72 -215 143 -317 164 -128 27 -255 16 -400 -35 l-59 -20 -61 20
c-83 28 -206 50 -273 50 -89 0 -230 -34 -307 -73 -140 -70 -242 -178 -318
-336 -39 -81 -41 -89 -45 -200 -4 -105 -2 -123 21 -188 29 -82 31 -78 -48
-103 -135 -42 -302 -168 -384 -289 -134 -197 -178 -380 -168 -687 l7 -180 -46
-45 c-102 -99 -180 -226 -225 -367 l-23 -72 -210 2 -211 3 -37 155 c-48 196
-156 663 -248 1070 -145 640 -222 966 -238 1013 l-17 47 -561 0 -562 0 -6 93
c-4 50 -5 106 -4 122 l3 30 -157 3 -158 3 0 -481z m1269 -137 c78 -376 352
-1588 412 -1826 11 -43 17 -82 14 -87 -7 -12 -205 -13 -221 -2 -6 4 -21 63
-33 132 -99 561 -261 1411 -312 1633 l-21 87 -394 0 -394 0 0 85 0 85 463 0
464 0 22 -107z m498 -2199 c19 -5 27 -28 67 -187 24 -100 99 -396 166 -657 66
-261 184 -725 261 -1030 77 -305 180 -711 230 -902 49 -191 89 -356 89 -366 0
-12 -9 -22 -22 -26 -33 -8 -371 -7 -384 2 -5 4 -18 43 -27 87 -9 44 -59 287
-112 540 -53 253 -104 501 -115 550 -11 50 -40 191 -66 315 -25 124 -70 344
-100 490 -130 629 -218 1066 -228 1143 l-7 47 113 0 c62 0 123 -3 135 -6z
m627 -26 c3 -13 10 -50 16 -83 16 -88 37 -148 87 -256 l45 -96 -35 -49 c-46
-65 -91 -156 -113 -230 -26 -87 -24 -320 4 -426 28 -102 78 -209 136 -285 56
-74 174 -185 231 -218 54 -31 203 -83 263 -91 49 -6 49 -7 60 -53 55 -240 235
-432 487 -518 71 -25 94 -28 205 -28 139 1 195 11 321 62 l87 34 58 -24 c141
-60 201 -72 344 -72 125 0 142 3 220 31 98 35 167 78 260 162 l65 59 82 -77
c127 -119 238 -165 423 -177 116 -7 222 12 349 63 l87 35 71 -30 c143 -59 178
-66 323 -65 126 1 141 3 225 33 119 43 162 69 247 149 118 112 192 231 218
353 l13 57 53 6 c279 33 538 297 621 633 11 47 17 110 17 203 -1 114 -4 145
-23 199 -29 83 -83 190 -115 228 -14 17 -26 34 -26 37 0 4 16 30 35 59 49 74
102 228 111 321 l7 76 323 0 c178 0 324 -1 324 -3 0 -12 -73 -210 -153 -417
-52 -135 -127 -337 -166 -450 -40 -113 -79 -221 -88 -240 -9 -19 -24 -60 -34
-90 -32 -103 -413 -1138 -647 -1757 l-76 -203 -2231 0 -2232 0 -61 238 c-582
2293 -732 2886 -732 2905 0 15 17 17 155 17 152 0 155 0 159 -22z"/>
<path d="M3295 1247 c-184 -48 -333 -210 -365 -398 -40 -238 118 -469 365
-534 155 -40 322 7 449 125 257 241 159 673 -180 790 -74 26 -202 34 -269 17z
m200 -276 c77 -34 125 -103 125 -178 0 -130 -90 -216 -224 -215 -62 1 -142 46
-172 97 -34 59 -39 102 -20 168 20 68 58 109 129 136 58 23 96 21 162 -8z"/>
<path d="M6744 1245 c-88 -19 -140 -49 -220 -127 -107 -103 -143 -190 -144
-343 0 -143 44 -249 140 -338 156 -145 382 -176 564 -79 78 41 177 145 217
227 33 67 34 73 34 190 0 118 -1 121 -37 198 -103 215 -322 323 -554 272z
m177 -261 c73 -22 132 -82 149 -152 10 -43 9 -60 -5 -109 -21 -72 -63 -113
-140 -138 -101 -31 -201 5 -252 92 -66 113 -9 263 119 310 45 16 66 16 129 -3z"/>
</g>
</svg>
